<?xml version="1.0" standalone="no"?>
<!DOCTYPE svg PUBLIC "-//W3C//DTD SVG 20010904//EN"
 "http://www.w3.org/TR/2001/REC-SVG-20010904/DTD/svg10.dtd">
<svg version="1.0" xmlns="http://www.w3.org/2000/svg"
 width="1090.000000pt" height="1090.000000pt" viewBox="0 0 1090.000000 1090.000000"
 preserveAspectRatio="xMidYMid meet">
<metadata>
Created by potrace 1.14, written by Peter Selinger 2001-2017
</metadata>
<g transform="translate(0.000000,1090.000000) scale(0.100000,-0.100000)"
fill="#000000" stroke="none">
<path d="M534 10780 c-246 -64 -424 -301 -424 -564 0 -201 123 -399 305 -491
l75 -38 0 -1417 0 -1416 -29 -17 c-161 -95 -303 -309 -341 -512 -8 -43 -10
-478 -8 -1510 3 -1617 -2 -1487 73 -1641 117 -240 344 -397 609 -423 l76 -7 2
3474 3 3474 40 16 c129 50 252 185 305 332 31 88 38 231 15 319 -33 128 -113
250 -210 323 -78 60 -110 75 -202 99 -95 24 -196 24 -289 -1z"/>
<path d="M10127 10779 c-236 -67 -411 -267 -435 -496 -24 -220 61 -421 231
-548 33 -25 82 -55 108 -67 l49 -20 0 -3439 0 -3439 44 0 c71 0 181 27 260 64
226 104 379 282 443 516 17 61 18 153 18 1525 0 1566 3 1484 -51 1628 -44 117
-151 254 -260 334 l-64 47 0 1380 0 1381 68 32 c306 148 423 533 250 826 -135
230 -415 346 -661 276z"/>
<path d="M4055 10410 c-213 -29 -400 -189 -466 -400 -24 -78 -29 -218 -9 -300
12 -54 54 -149 85 -193 33 -47 122 -130 175 -162 30 -18 90 -45 132 -59 l77
-26 1431 0 1431 0 77 26 c249 83 402 295 402 555 0 154 -53 281 -160 390 -71
71 -140 115 -240 151 l-65 23 -1405 1 c-773 1 -1432 -2 -1465 -6z"/>
<path d="M2815 7734 c-427 -27 -787 -188 -1084 -485 -142 -142 -232 -267 -315
-436 -303 -618 -178 -1369 309 -1858 217 -219 463 -362 747 -434 229 -59 63
-56 3008 -56 2916 0 2778 -2 2990 51 562 140 1039 612 1181 1168 68 266 69
573 4 825 -72 279 -203 508 -414 724 -256 263 -547 416 -921 485 -76 14 -384
15 -2770 17 -1477 1 -2707 0 -2735 -1z"/>
<path d="M8285 4039 c-11 -4 -216 -42 -455 -84 -451 -79 -545 -102 -667 -162
-325 -162 -587 -543 -649 -942 l-16 -106 -1042 0 c-1158 0 -1084 4 -1219 -68
-123 -65 -261 -252 -287 -387 -39 -204 20 -389 170 -540 45 -45 97 -86 130
-102 122 -60 91 -58 1079 -58 l904 0 44 -45 c30 -31 57 -49 88 -57 l46 -12 -7
-157 c-9 -201 8 -277 84 -377 51 -67 76 -75 547 -166 242 -47 777 -151 1190
-231 412 -80 768 -145 790 -145 153 0 273 60 346 173 64 98 82 175 88 372 l6
170 85 6 c103 7 188 31 222 61 14 13 42 36 63 52 60 46 111 135 125 217 17
101 10 192 -22 260 -34 75 -127 168 -207 208 -77 39 -189 65 -245 56 -23 -4
-309 -54 -636 -111 -680 -119 -789 -134 -990 -134 -327 0 -410 20 -1272 315
l-108 37 0 43 c0 24 4 47 10 50 5 3 310 -1 677 -10 1827 -42 2320 -51 2329
-42 2 2 7 40 11 84 l6 80 151 -1 c142 -1 154 0 200 24 60 30 132 109 146 158
27 98 2 191 -67 253 -59 54 -108 67 -259 72 -73 2 -136 7 -142 11 -6 4 -10 52
-10 124 1 307 -119 602 -331 817 -200 202 -467 308 -766 304 -66 -1 -129 -6
-140 -10z m-111 -253 c45 -19 66 -52 66 -102 0 -75 -67 -146 -140 -148 -35 -1
-46 4 -71 32 -61 68 -18 193 77 222 16 4 30 9 32 9 1 1 18 -5 36 -13z m-613
-96 c52 -28 61 -129 17 -186 -84 -107 -226 -25 -177 103 27 73 104 112 160 83z
m1019 -199 c16 -16 32 -40 36 -55 16 -67 -33 -154 -102 -176 -139 -46 -216
123 -103 225 34 30 46 35 90 35 42 0 55 -5 79 -29z m-1333 -154 c47 -43 38
-134 -18 -182 -40 -33 -88 -33 -126 -1 -24 21 -28 32 -28 74 0 59 24 98 76
124 38 20 63 16 96 -15z m614 -56 c23 -23 29 -38 29 -71 0 -134 -151 -205
-213 -100 -70 118 89 265 184 171z"/>
</g>
</svg>
